<svg width="20" height="19" viewBox="0 0 20 19" fill="none" xmlns="http://www.w3.org/2000/svg">
<path d="M9.24742 2.62712L10 3.48721L10.7526 2.62712C13.6081 -0.636295 19 1.31339 19 5.96857C19 8.06817 17.696 10.1125 15.812 12.1098C14.886 13.0915 13.8615 14.0194 12.8629 14.9008C12.676 15.0657 12.4892 15.2297 12.3038 15.3925C11.5131 16.0867 10.7481 16.7584 10.1171 17.3795C10.0968 17.3996 10.0575 17.4207 10 17.4207C9.9425 17.4207 9.90325 17.3996 9.88285 17.3795C9.25192 16.7584 8.48687 16.0867 7.69619 15.3925C7.51078 15.2297 7.32396 15.0657 7.13713 14.9008C6.13847 14.0194 5.11402 13.0915 4.18802 12.1098C2.30397 10.1125 1 8.06819 1 5.96859C1 1.31341 6.39194 -0.636289 9.24742 2.62712Z" stroke="white" stroke-width="2" stroke-linecap="round"/>
</svg>
