<svg width="46" height="45" viewBox="0 0 46 45" fill="none" xmlns="http://www.w3.org/2000/svg">
<path d="M18.9837 34.7472C22.3801 33.5963 26.0231 31.7526 28.9767 28.799C35.5496 22.2261 36.6259 12.2392 36.8022 9.15292C36.833 8.6132 36.4345 8.21476 35.8948 8.24559C32.8085 8.42184 22.8216 9.49818 16.2488 16.0711C13.2952 19.0247 11.4515 22.6676 10.3006 26.064C12.1794 26.8949 13.9761 28.0224 15.5007 29.547C17.0254 31.0717 18.1529 32.8683 18.9837 34.7472Z" stroke="white" stroke-width="2" stroke-linecap="round"/>
<circle cx="23.8345" cy="21.2131" r="4" transform="rotate(45 23.8345 21.2131)" stroke="white" stroke-width="2"/>
<path d="M13.02 20.2981C12.1966 19.8619 11.236 19.6807 10.2445 19.7746C9.25296 19.8684 8.26914 20.2337 7.40178 20.8299C6.53443 21.4261 5.81732 22.2301 5.32974 23.153C4.84217 24.0759 4.60312 25.0817 4.63902 26.0592L10.3995 26.1629" stroke="white" stroke-width="2"/>
<path d="M24.7495 32.0277C25.1857 32.8512 25.3669 33.8117 25.273 34.8033C25.1792 35.7948 24.8139 36.7786 24.2177 37.6459C23.6215 38.5133 22.8175 39.2304 21.8946 39.718C20.9717 40.2056 19.9659 40.4446 18.9884 40.4087L18.8847 34.6482" stroke="white" stroke-width="2"/>
<path d="M13.5592 27.9084C12.8047 28.2653 12.0613 28.7437 11.4201 29.3849C9.2733 31.5317 8.95169 34.8235 8.9039 35.8413C8.89555 36.0193 9.02836 36.1521 9.20635 36.1437C10.2242 36.0959 13.5159 35.7743 15.6627 33.6276C16.304 32.9863 16.7824 32.2429 17.1393 31.4885" stroke="white" stroke-width="2" stroke-linecap="round"/>
</svg>
