<svg width="36" height="34" viewBox="0 0 36 34" fill="none" xmlns="http://www.w3.org/2000/svg">
<path d="M4.80002 18.8099C5.83318 15.4005 6.34976 13.6958 7.55158 12.5881C7.86477 12.2994 8.2078 12.0449 8.57488 11.8289C9.9835 11 11.7648 11 15.3273 11H21.006C24.5686 11 26.3498 11 27.7584 11.8289C28.1255 12.0449 28.4686 12.2994 28.7818 12.5881C29.9836 13.6958 30.5001 15.4005 31.5333 18.8099V18.8099C33.3112 24.677 34.2002 27.6106 33.0597 29.7859C32.7705 30.3376 32.3971 30.8409 31.953 31.2777C30.2019 33 27.1366 33 21.006 33H15.3273C9.19674 33 6.13146 33 4.38034 31.2777C3.93622 30.8409 3.56283 30.3376 3.27359 29.7859C2.13317 27.6106 3.02212 24.677 4.80002 18.8099V18.8099Z" stroke="white" stroke-width="2"/>
<path d="M13.0859 20.8275C13.6011 19.1472 15.1527 18 16.9102 18H19.0898C20.8473 18 22.3989 19.1472 22.9141 20.8275V20.8275C23.7025 23.3989 21.7794 26 19.0898 26H16.9102C14.2206 26 12.2975 23.3989 13.0859 20.8275V20.8275Z" stroke="white" stroke-width="2"/>
<circle cx="18.1666" cy="6" r="5" stroke="white" stroke-width="2"/>
</svg>
